<?xml version="1.0" standalone="no"?>
<!DOCTYPE svg PUBLIC "-//W3C//DTD SVG 20010904//EN"
 "http://www.w3.org/TR/2001/REC-SVG-20010904/DTD/svg10.dtd">
<svg version="1.0" xmlns="http://www.w3.org/2000/svg"
 width="400.000000pt" height="400.000000pt" viewBox="0 0 400.000000 400.000000"
 preserveAspectRatio="xMidYMid meet">

<g transform="translate(0.000000,400.000000) scale(0.100000,-0.100000)"
fill="#000000" stroke="none">
<path d="M0 2000 l0 -2000 2000 0 2000 0 0 190 c0 105 -3 190 -6 190 -3 0 -20
-11 -37 -24 -59 -45 -126 -59 -245 -53 -128 6 -192 21 -251 59 -25 15 -48 28
-52 28 -3 0 -8 -45 -11 -100 -3 -55 -7 -103 -10 -105 -3 -3 -41 -12 -84 -19
-44 -8 -122 -21 -174 -30 -108 -19 -281 -36 -292 -29 -5 2 -8 14 -8 25 0 21
-1 20 -29 -6 -27 -26 -34 -28 -158 -33 -136 -6 -209 4 -268 37 -59 33 -133 50
-214 50 l-81 0 0 -41 0 -42 -96 7 c-53 4 -137 14 -188 22 -50 8 -136 21 -190
29 -55 8 -102 18 -105 21 -3 3 -8 64 -10 135 -1 71 -5 129 -8 129 -2 0 -28
-15 -56 -33 -134 -87 -117 -82 -278 -81 -157 0 -203 9 -274 53 -46 28 -115
100 -115 119 0 10 -11 12 -46 6 -51 -7 -52 -2 -11 43 16 19 18 25 7 38 -9 11
-10 18 -1 29 10 12 5 15 -29 21 -24 4 -52 18 -67 33 -22 22 -25 31 -20 70 4
33 0 53 -14 76 -22 36 -24 64 -8 100 10 21 9 30 -6 53 -12 17 -19 46 -19 75 0
39 5 53 29 78 25 26 27 33 17 55 -43 93 43 154 188 134 69 -10 73 -9 105 15
42 32 52 86 36 179 -13 77 -14 121 -2 145 5 9 15 30 22 45 17 38 71 70 103 61
51 -12 60 -35 50 -126 -18 -174 2 -290 72 -422 20 -39 38 -88 41 -118 l6 -51
30 34 c52 60 205 213 238 239 44 34 91 57 173 86 77 26 130 30 191 12 22 -6
47 -12 55 -12 8 -1 14 -7 12 -14 -1 -8 2 -11 9 -7 8 5 7 11 -3 22 -17 17 -11
73 8 73 28 0 22 19 -16 44 -22 14 -40 32 -40 38 0 6 13 0 28 -15 15 -15 33
-27 40 -27 6 0 15 -6 19 -13 11 -18 126 -72 204 -96 191 -58 376 -81 501 -62
98 16 223 49 276 73 53 24 75 18 66 -16 l-6 -25 110 6 c100 5 117 4 174 -17
35 -13 88 -40 118 -61 83 -56 208 -204 295 -349 20 -33 37 -50 50 -50 12 0 26
-5 33 -12 9 -9 12 -8 12 4 0 9 -5 20 -10 23 -16 10 -11 116 8 162 9 23 33 63
52 89 96 131 128 220 142 399 7 77 12 602 15 1283 l3 1152 -2000 0 -2000 0 0
-2000z m2435 1669 c17 -6 50 -20 74 -31 24 -11 55 -18 68 -15 13 2 26 0 29 -5
3 -5 12 -7 20 -4 8 3 23 1 33 -6 13 -8 27 -8 49 0 17 6 33 8 37 4 3 -3 59 -7
123 -8 81 -1 125 -5 142 -15 57 -33 115 -73 147 -102 19 -18 41 -35 48 -40 21
-11 98 -135 130 -207 29 -64 29 -67 32 -295 2 -126 1 -235 -1 -241 -3 -9 -23
-6 -73 8 -45 13 -113 21 -203 25 -124 5 -145 3 -245 -21 -71 -18 -116 -34
-127 -47 -9 -10 -26 -19 -38 -19 -12 0 -18 -4 -15 -10 4 -6 -7 -10 -25 -10
-24 0 -43 12 -84 53 -77 76 -160 99 -383 105 -140 4 -164 2 -178 -12 -9 -9
-26 -17 -38 -17 -64 -4 -107 -10 -155 -20 -80 -18 -85 0 -42 166 29 112 32
167 15 209 -14 34 -15 45 -1 109 23 113 72 185 191 282 71 59 233 141 322 164
44 11 117 11 148 0z m-680 -1037 c30 -14 51 -54 69 -133 17 -70 51 -127 98
-162 44 -33 171 -58 306 -60 189 -3 263 38 316 172 14 36 26 73 26 82 0 25 22
39 61 39 47 0 58 -14 70 -88 17 -111 73 -192 149 -218 120 -41 372 -45 452 -6
77 38 98 68 152 226 6 18 8 19 24 2 27 -26 24 -202 -5 -276 -18 -48 -26 -94
-49 -286 -6 -53 -32 -78 -73 -69 -37 8 -53 26 -41 45 6 8 10 23 10 34 0 15 -4
13 -22 -10 -34 -46 -40 -51 -32 -29 4 11 12 25 19 30 12 10 29 65 20 65 -7 0
-55 -105 -56 -126 -1 -10 -5 -3 -9 16 -4 21 -8 26 -9 14 0 -12 -7 -36 -14 -53
-14 -32 -27 -29 -39 9 -3 8 -10 -5 -16 -30 -5 -25 -10 -37 -11 -27 -1 9 -5 17
-10 17 -6 0 -6 12 -1 30 5 18 5 30 -1 30 -9 0 -16 -23 -23 -83 -5 -47 -7 -49
-29 -32 -18 13 -17 14 2 20 15 4 21 14 20 33 0 27 0 27 -11 5 -6 -13 -17 -23
-25 -23 -7 0 -13 -11 -13 -25 0 -14 -5 -25 -10 -25 -6 0 -15 -10 -20 -22 -6
-17 -7 -7 -4 32 5 72 -3 110 -24 110 -13 0 -14 -2 -3 -9 9 -6 10 -11 2 -15 -6
-4 -14 0 -17 8 -3 9 -15 16 -25 16 -11 0 -22 7 -25 15 -9 23 -22 8 -16 -20 6
-33 -6 -32 -19 2 -8 21 -12 24 -19 13 -7 -11 -11 -8 -21 13 -15 33 -29 35 -29
5 0 -17 -3 -19 -9 -10 -4 8 -12 13 -17 13 -5 -1 -10 8 -10 19 -2 38 -14 34
-15 -6 -1 -21 -4 -29 -6 -17 -6 32 -33 38 -33 7 0 -14 -4 -23 -10 -19 -5 3 -7
12 -4 19 10 26 -13 26 -24 0 -11 -22 -9 -26 13 -36 61 -28 -65 -33 -165 -8
-25 7 -57 12 -72 11 -16 0 -28 4 -28 9 0 6 -8 11 -17 11 -10 1 -2 4 17 8 19 3
37 3 38 -1 2 -5 8 -8 14 -8 6 0 3 11 -6 25 -9 14 -12 25 -6 25 5 0 10 5 10 11
0 7 -10 5 -25 -5 -22 -14 -25 -15 -25 -1 0 17 -16 20 -25 5 -11 -18 -23 -10
-18 13 4 19 3 20 -7 5 -12 -19 -40 -25 -40 -8 0 14 -32 12 -54 -5 -16 -12 -21
-11 -38 5 -15 14 -26 16 -44 10 -13 -5 -26 -5 -29 -1 -3 5 -14 7 -25 4 -11 -3
-17 -9 -14 -14 3 -5 1 -9 -5 -9 -6 0 -15 9 -21 21 l-11 20 -20 -22 c-21 -24
-24 -39 -9 -39 6 0 10 5 10 10 0 18 17 11 23 -9 3 -14 0 -17 -14 -14 -14 4
-19 0 -19 -13 0 -14 -2 -16 -9 -6 -6 10 -10 6 -14 -15 -3 -15 -1 -32 4 -38 5
-5 9 -18 8 -30 0 -11 -3 -14 -6 -7 -2 6 -11 12 -19 12 -8 0 -14 7 -14 15 0 23
-19 18 -30 -7 l-9 -23 0 23 c-1 12 4 22 9 22 6 0 10 15 9 33 l-1 32 -12 -27
c-10 -24 -13 -25 -22 -10 -7 10 -8 26 -3 39 13 35 -7 37 -21 2 -10 -23 -10
-33 -1 -42 14 -14 15 -30 1 -22 -6 4 -17 1 -25 -5 -12 -10 -15 -9 -15 8 0 11
-3 22 -7 25 -5 2 -2 2 5 1 6 -2 12 5 12 14 0 10 5 23 11 29 6 6 9 19 6 29 -4
15 -5 14 -6 -4 0 -13 -5 -20 -11 -17 -6 4 -23 -7 -39 -24 -16 -17 -35 -31 -42
-31 -10 0 -10 3 -1 12 15 15 16 58 2 58 -6 0 -14 -10 -19 -22 -5 -13 -10 -17
-15 -10 -4 6 -12 10 -19 8 -7 -1 -9 -1 -5 1 4 3 0 16 -9 30 -16 23 -18 24 -30
8 -11 -17 -13 -17 -19 -2 -3 9 -11 14 -18 10 -6 -3 -6 -1 2 8 14 15 16 49 3
49 -5 0 -11 15 -15 33 -5 25 -9 29 -16 17 -6 -10 -10 -11 -10 -2 0 6 -7 12
-15 12 -10 0 -15 -10 -15 -29 0 -60 48 -229 88 -311 23 -46 40 -85 38 -87 -7
-8 -85 156 -107 225 l-23 72 -42 0 c-57 0 -91 14 -100 42 -4 13 -6 64 -5 113
2 79 -2 103 -34 198 -52 161 -46 230 25 291 25 21 42 26 84 26 l53 0 7 -46 c3
-26 6 -66 6 -90 0 -46 10 -59 39 -49 16 5 20 20 25 98 4 50 10 119 14 152 l7
60 3 -51 c2 -43 7 -53 27 -62z m315 73 c7 -14 11 -28 7 -31 -3 -3 -13 8 -22
25 -8 17 -12 31 -7 31 5 0 15 -11 22 -25z m60 4 c0 -6 -4 -7 -10 -4 -5 3 -10
11 -10 16 0 6 5 7 10 4 6 -3 10 -11 10 -16z m-101 -16 l11 -28 -19 23 c-25 29
-28 28 -23 -8 4 -26 2 -29 -14 -24 -11 4 -25 14 -31 22 -7 9 -15 13 -18 10 -3
-3 6 -20 20 -37 32 -37 26 -39 -26 -9 -46 25 -45 37 2 60 52 26 84 23 98 -9z
m-226 10 c9 -8 -25 -33 -36 -26 -4 3 -3 11 4 19 13 15 22 18 32 7z m458 -16
c-10 -9 -11 -8 -5 6 3 10 9 15 12 12 3 -3 0 -11 -7 -18z m99 12 c0 -5 -5 -7
-12 -3 -7 4 -8 3 -4 -4 3 -6 -2 -16 -13 -21 -29 -16 -32 -14 -19 14 11 24 48
35 48 14z m92 -9 c3 0 20 -12 37 -26 22 -18 31 -34 31 -56 0 -50 -40 -169 -66
-197 -13 -14 -24 -29 -24 -32 0 -4 -19 -15 -42 -24 -83 -33 -357 -16 -426 27
-34 21 -62 71 -76 135 l-7 31 40 -12 c50 -14 57 -22 41 -41 -13 -16 -10 -18
14 -9 10 4 14 14 10 32 -6 35 24 83 70 110 41 24 45 21 16 -15 -25 -32 -27
-103 -4 -138 13 -20 14 -25 3 -26 -33 -3 71 -18 126 -18 57 -1 61 1 83 32 29
44 31 124 2 157 -11 13 -20 25 -20 27 0 12 86 -46 111 -75 16 -18 29 -26 29
-19 0 8 -9 22 -20 32 -24 21 -26 35 -6 35 8 0 18 5 21 10 4 7 -2 9 -19 4 -30
-7 -33 -2 -10 20 8 9 11 16 6 16 -6 0 -8 8 -5 19 4 16 10 17 41 10 21 -5 40
-9 44 -9z m461 -32 c4 -12 4 -24 1 -27 -3 -3 -7 5 -11 17 -3 12 -10 19 -16 15
-6 -3 -7 -1 -3 5 11 18 23 14 29 -10z m-47 -19 c1 -26 -2 -30 -20 -25 -21 5
-21 5 1 -13 20 -17 21 -20 7 -32 -8 -7 -13 -18 -10 -26 3 -8 2 -12 -3 -9 -5 3
-12 -1 -15 -10 -3 -8 -2 -13 3 -10 5 3 11 -11 14 -30 4 -20 14 -46 24 -57 13
-14 14 -18 3 -12 -12 6 -13 5 -3 -5 8 -8 44 -15 95 -18 79 -4 84 -3 107 22 20
21 24 37 25 85 1 50 -3 64 -23 85 -34 36 -23 40 29 12 52 -28 90 -79 90 -120
0 -23 3 -27 12 -18 7 7 22 12 34 12 24 0 45 20 22 20 -8 0 -6 5 5 11 9 5 17
14 17 19 0 5 -8 6 -17 3 -16 -6 -16 -5 -4 10 12 16 12 17 -5 11 -18 -7 -18 -7
-1 13 24 28 21 34 -10 17 -16 -7 -35 -14 -43 -13 -8 0 -5 4 8 9 12 5 22 16 22
24 0 10 -6 13 -15 10 -8 -4 -15 -11 -15 -18 0 -6 -4 -5 -9 3 -6 9 -5 25 0 40
9 25 8 25 -6 7 -18 -23 -20 -14 -4 13 10 15 18 17 63 9 28 -5 66 -16 84 -26
l32 -17 0 -90 c0 -78 -4 -99 -26 -144 -41 -81 -54 -86 -224 -86 -80 0 -166 4
-193 8 -89 15 -154 107 -164 234 -7 74 10 107 60 122 49 14 52 13 53 -20z
m104 16 c0 -8 -2 -15 -4 -15 -2 0 -6 7 -10 15 -3 8 -1 15 4 15 6 0 10 -7 10
-15z m184 -10 c-9 -14 -19 -24 -21 -21 -6 6 20 46 30 46 4 0 0 -11 -9 -25z
m-1250 -11 c19 -19 21 -28 4 -18 -9 5 -9 2 1 -9 11 -14 11 -17 0 -17 -22 0
-35 13 -36 38 -2 26 9 28 31 6z m1590 -23 c3 -5 -1 -12 -10 -15 -27 -11 -37
-7 -24 9 14 17 26 19 34 6z m-1589 -41 c3 -5 2 -10 -4 -10 -5 0 -13 5 -16 10
-3 6 -2 10 4 10 5 0 13 -4 16 -10z m263 -37 c5 -17 -26 -29 -40 -15 -6 6 -7
15 -3 22 9 14 37 9 43 -7z m787 -48 c0 -11 -8 -21 -17 -23 -14 -3 -18 3 -18
23 0 20 4 26 18 23 9 -2 17 -12 17 -23z m-714 -568 c-10 -9 -11 -8 -5 6 3 10
9 15 12 12 3 -3 0 -11 -7 -18z m27 -47 c192 -78 440 -110 597 -77 39 8 72 13
74 11 12 -12 -16 -59 -51 -84 -23 -17 -34 -30 -25 -30 43 0 29 -42 -21 -64
-55 -24 -77 -28 -192 -28 -163 0 -294 29 -382 86 -26 17 -48 34 -48 39 0 4 21
7 47 7 l46 0 -44 23 c-48 26 -79 74 -76 120 1 15 1 27 2 27 0 0 33 -13 73 -30z
m-139 -6 c6 -15 9 -29 6 -32 -3 -3 -5 1 -6 9 -1 8 -5 3 -10 -11 -8 -23 -8 -22
-4 6 2 17 -1 36 -8 43 -7 7 -7 11 -1 11 6 0 16 -12 23 -26z m891 -54 c0 -5 -4
-10 -10 -10 -5 0 -10 5 -10 10 0 6 5 10 10 10 6 0 10 -4 10 -10z m-1043 -22
c-3 -8 -6 -5 -6 6 -1 11 2 17 5 13 3 -3 4 -12 1 -19z m171 -47 c-16 -26 -2
-40 16 -16 13 18 15 18 40 -10 14 -15 26 -24 26 -20 0 4 18 -9 40 -29 22 -20
45 -36 50 -36 6 0 12 0 15 0 3 0 25 -9 51 -20 25 -11 50 -18 55 -15 5 3 19 0
31 -6 38 -20 226 -23 288 -5 61 18 82 20 60 6 -8 -5 -10 -10 -5 -10 6 0 17 5
25 10 8 5 11 10 5 10 -5 0 2 8 15 17 14 10 28 17 32 16 4 -2 10 6 13 17 8 25
25 16 26 -13 1 -14 4 -10 9 13 5 19 6 39 3 44 -4 5 -1 6 5 2 12 -7 12 -86 0
-86 -5 0 -8 -8 -9 -17 0 -15 -2 -15 -9 2 -8 20 -9 20 -9 -1 -1 -11 -10 -30
-21 -42 -11 -12 -20 -28 -20 -36 0 -8 -4 -18 -10 -21 -5 -3 -10 1 -10 9 0 8
-6 14 -12 12 -7 -3 -25 -7 -40 -10 -19 -4 -26 -11 -22 -21 8 -20 34 -19 34 1
0 8 4 12 10 9 14 -9 -12 -46 -28 -40 -8 3 -32 7 -55 10 -23 2 -34 2 -24 -1 25
-8 21 -21 -8 -26 -19 -4 -25 -1 -23 11 2 10 -6 17 -22 19 -24 3 -24 3 -5 -11
11 -9 17 -19 13 -23 -5 -4 -16 3 -27 14 -22 27 -38 28 -43 5 -3 -16 -6 -15
-27 6 -20 20 -29 22 -67 16 -36 -5 -44 -3 -44 9 0 19 0 19 -73 2 -51 -12 -59
-12 -64 1 -4 10 -14 13 -29 9 -17 -5 -24 -2 -24 8 0 8 6 16 13 19 10 4 10 7 0
18 -11 11 -13 10 -13 -3 0 -11 -6 -15 -20 -11 -15 4 -20 0 -20 -13 0 -16 2
-16 10 -4 5 8 11 12 14 9 3 -2 1 -11 -4 -19 -8 -12 -12 -11 -30 7 -24 27 -26
45 -4 41 10 -2 19 2 21 7 5 15 -40 17 -48 3 -6 -9 -12 -8 -23 1 -12 10 -13 18
-5 32 7 15 6 19 -6 19 -17 0 -21 45 -5 55 6 3 10 13 10 21 0 20 -19 8 -30 -20
-8 -20 -9 -20 -10 4 -1 24 -1 24 -15 6 -8 -11 -15 -15 -15 -10 0 6 5 15 10 20
6 6 12 26 13 45 2 41 18 64 30 43 4 -7 2 -22 -5 -33z m-58 24 c0 -8 -4 -15
-10 -15 -5 0 -7 7 -4 15 4 8 8 15 10 15 2 0 4 -7 4 -15z m108 -20 c-3 -3 -9 2
-12 12 -6 14 -5 15 5 6 7 -7 10 -15 7 -18z m809 -22 c-3 -10 -5 -2 -5 17 0 19
2 27 5 18 2 -10 2 -26 0 -35z m-30 -5 c-3 -8 -6 -5 -6 6 -1 11 2 17 5 13 3 -3
4 -12 1 -19z m23 -48 c0 -5 -4 -10 -10 -10 -5 0 -10 5 -10 10 0 6 5 10 10 10
6 0 10 -4 10 -10z m-443 -216 c-3 -3 -12 -4 -19 -1 -8 3 -5 6 6 6 11 1 17 -2
13 -5z"/>
<path d="M2057 3070 c-37 -11 -82 -30 -100 -41 -70 -47 -125 -143 -114 -202 3
-19 4 -18 12 8 9 31 62 95 79 95 5 0 17 6 25 14 23 20 159 56 212 56 24 0 92
-7 152 -17 72 -11 110 -14 117 -7 14 14 -7 72 -31 85 -18 9 -19 7 -14 -18 l7
-28 -33 35 -33 35 -106 2 c-81 2 -121 -2 -173 -17z"/>
<path d="M2850 2983 c-11 -14 -19 -31 -17 -37 4 -13 47 -23 105 -25 58 -1 183
-28 248 -52 55 -21 113 -72 126 -112 5 -13 6 -1 4 30 -6 97 -55 143 -205 194
-102 35 -160 37 -186 9 -18 -20 -45 -27 -45 -12 0 4 5 13 12 20 9 9 8 12 -4
12 -9 0 -26 -12 -38 -27z"/>
<path d="M1558 2442 c-17 -22 -16 -102 2 -102 6 0 10 21 10 47 0 25 3 43 7 39
12 -11 11 -101 -1 -108 -7 -5 -5 -8 7 -8 9 0 17 7 17 15 0 8 5 15 10 15 6 0
10 8 10 18 0 14 -2 15 -10 2 -8 -11 -10 -8 -9 15 3 54 -1 73 -15 78 -8 3 -20
-2 -28 -11z"/>
<path d="M1521 2384 c0 -11 3 -14 6 -6 3 7 2 16 -1 19 -3 4 -6 -2 -5 -13z"/>
<path d="M3406 2331 c-17 -19 -22 -56 -6 -46 6 3 10 1 10 -4 0 -14 -13 -14
-28 1 -9 9 -12 5 -12 -17 0 -20 3 -26 9 -17 6 10 10 4 15 -19 7 -38 18 -31 35
23 9 26 9 43 2 57 -8 14 -8 20 1 23 8 3 9 6 1 11 -6 4 -18 -2 -27 -12z m21
-53 c-3 -8 -6 -5 -6 6 -1 11 2 17 5 13 3 -3 4 -12 1 -19z m-14 -43 c-7 -21
-13 -19 -13 6 0 11 4 18 10 14 5 -3 7 -12 3 -20z"/>
<path d="M1521 2254 c0 -11 3 -14 6 -6 3 7 2 16 -1 19 -3 4 -6 -2 -5 -13z"/>
<path d="M3416 2163 c-6 -14 -5 -15 5 -6 7 7 10 15 7 18 -3 3 -9 -2 -12 -12z"/>
<path d="M2487 2073 c-4 -3 -7 -15 -7 -25 0 -15 8 -18 50 -18 28 0 50 2 50 5
0 3 -8 14 -17 25 -17 19 -62 27 -76 13z"/>
<path d="M2704 2065 c-4 -9 -18 -22 -33 -30 -25 -14 -25 -14 27 -15 53 0 60 7
46 44 -8 20 -33 21 -40 1z"/>
<path d="M1897 2004 c-4 -4 -7 -17 -7 -28 1 -19 1 -20 11 -3 11 19 8 43 -4 31z"/>
<path d="M2050 1930 c0 -11 2 -20 4 -20 2 0 6 9 9 20 3 11 1 20 -4 20 -5 0 -9
-9 -9 -20z"/>
<path d="M2761 1934 c0 -11 3 -14 6 -6 3 7 2 16 -1 19 -3 4 -6 -2 -5 -13z"/>
<path d="M2525 1930 c-3 -5 -2 -10 4 -10 5 0 13 5 16 10 3 6 2 10 -4 10 -5 0
-13 -4 -16 -10z"/>
<path d="M2660 1899 c0 -5 5 -7 10 -4 6 3 10 8 10 11 0 2 -4 4 -10 4 -5 0 -10
-5 -10 -11z"/>
<path d="M2556 1885 c-3 -8 -1 -15 4 -15 6 0 10 7 10 15 0 8 -2 15 -4 15 -2 0
-6 -7 -10 -15z"/>
<path d="M2620 1879 c7 -11 14 -19 16 -16 7 7 -7 37 -17 37 -6 0 -5 -9 1 -21z"/>
<path d="M3186 2425 c4 -8 11 -15 16 -15 6 0 5 6 -2 15 -7 8 -14 15 -16 15 -2
0 -1 -7 2 -15z"/>
<path d="M2320 1726 c0 -2 9 -6 20 -9 11 -3 18 -1 14 4 -5 9 -34 13 -34 5z"/>
<path d="M2370 1710 c0 -6 7 -10 15 -10 8 0 15 2 15 4 0 2 -7 6 -15 10 -8 3
-15 1 -15 -4z"/>
<path d="M2503 1683 c9 -2 25 -2 35 0 9 3 1 5 -18 5 -19 0 -27 -2 -17 -5z"/>
<path d="M2763 1683 c9 -2 23 -2 30 0 6 3 -1 5 -18 5 -16 0 -22 -2 -12 -5z"/>
<path d="M2608 1673 c23 -2 61 -2 85 0 23 2 4 4 -43 4 -47 0 -66 -2 -42 -4z"/>
<path d="M2180 1681 c0 -6 5 -13 10 -16 6 -3 10 1 10 9 0 9 -4 16 -10 16 -5 0
-10 -4 -10 -9z"/>
<path d="M2230 1682 c0 -5 10 -17 21 -28 22 -19 22 -19 10 3 -12 24 -31 39
-31 25z"/>
<path d="M2285 1630 c9 -15 45 -32 45 -22 0 5 -12 14 -26 20 -14 7 -23 8 -19
2z"/>
<path d="M2340 1604 c0 -16 34 -33 115 -55 113 -30 214 -30 300 0 43 16 50 20
25 17 -44 -6 -90 -15 -111 -22 -25 -7 -208 15 -243 30 -67 29 -86 35 -86 30z"/>
<path d="M2970 1379 c0 -5 5 -7 10 -4 6 3 10 8 10 11 0 2 -4 4 -10 4 -5 0 -10
-5 -10 -11z"/>
<path d="M2468 1313 c7 -3 16 -2 19 1 4 3 -2 6 -13 5 -11 0 -14 -3 -6 -6z"/>
<path d="M2540 672 c-43 -6 -92 -23 -157 -55 l-63 -31 0 -109 c0 -98 -2 -108
-17 -105 -15 3 -18 16 -21 86 l-3 83 -57 -45 c-31 -24 -77 -55 -102 -68 -39
-21 -45 -29 -48 -61 -4 -42 -4 -42 79 -21 97 25 177 16 274 -31 67 -33 92 -39
160 -43 108 -6 182 10 223 49 52 49 44 59 -47 59 -63 0 -83 4 -104 20 -32 25
-35 25 -39 -2 -2 -13 -11 -24 -20 -26 -17 -3 -18 9 -18 147 0 82 -3 151 -7
153 -5 2 -19 2 -33 0z"/>
<path d="M2620 617 l0 -63 52 48 c58 53 56 63 -9 72 l-43 5 0 -62z"/>
<path d="M2125 296 c-32 -10 -41 -18 -43 -39 l-3 -27 75 0 c71 0 153 -20 210
-51 52 -29 183 -59 258 -59 68 0 86 4 126 27 64 37 92 68 92 104 0 33 -10 37
-34 11 -26 -29 -90 -43 -190 -43 -91 1 -108 5 -271 68 -53 21 -170 25 -220 9z"/>
</g>
</svg>
